<svg width="96" height="24" viewBox="0 0 96 24" fill="none" xmlns="http://www.w3.org/2000/svg">
<path d="M16.1924 15.4011C16.1924 16.7873 15.9659 17.7788 15.5117 18.8079C15.0586 19.8359 14.4435 20.7362 13.6661 21.4755C12.8888 22.2148 12.0149 22.7933 11.0111 23.2109C10.0073 23.6285 8.9379 23.8213 7.80529 23.8213C4.83633 23.8213 3.3645 22.4213 2.85051 21.7322V23.4357H0V0.0404053H2.94711V9.13494C3.47949 8.48004 5.0755 6.98196 7.83748 6.98196C12.1288 6.98082 16.1924 9.76589 16.1924 15.4011ZM13.2453 15.4011C13.2453 13.7627 12.7589 12.4768 11.7551 11.5127C10.7512 10.5486 9.42315 10.0671 7.77194 10.0671C6.63818 10.0671 5.63434 10.3238 4.72825 10.8384C3.821 11.353 3.23802 11.9953 2.94711 12.7666V18.0047C3.23917 18.776 3.821 19.4184 4.72825 19.9329C5.63549 20.4475 6.63933 20.7042 7.77194 20.7042C9.42315 20.7042 10.7512 20.2227 11.7551 19.2906C12.7589 18.3584 13.2453 17.0737 13.2453 15.4661V15.4011Z" fill="#084242"/>
<path d="M43.9317 7.01382C45.162 7.01382 46.2314 7.20665 47.1053 7.62424C47.9803 8.04182 48.5633 8.5564 48.8221 9.16681V0.0722656H51.7692V23.4664H48.952V21.7641C48.2667 22.5684 46.3533 23.8212 43.9972 23.8212C42.8635 23.8212 41.7952 23.6284 40.7914 23.2108C39.7876 22.7932 38.9125 22.2148 38.1352 21.4754C37.3579 20.7361 36.7427 19.837 36.2897 18.8079C35.8366 17.7799 35.6101 16.9378 35.6101 15.369C35.609 10.5964 39.3587 7.01382 43.9317 7.01382ZM38.5883 15.5618C38.5883 17.1683 39.0735 18.4542 40.0785 19.3863C41.0823 20.3185 42.4104 20.8 44.0616 20.8C45.1954 20.8 46.1992 20.5433 47.1053 20.0287C48.0125 19.5141 48.5955 18.8718 48.8864 18.1005V12.8624C48.5944 12.0911 48.0125 11.4487 47.1053 10.9341C46.1981 10.4196 45.1942 10.1629 44.0616 10.1629C42.4104 10.1629 41.0823 10.6443 40.0785 11.6084C39.0746 12.5726 38.5883 13.8584 38.5883 15.4968V15.5618Z" fill="#084242"/>
<path d="M62.2549 23.82C61.3292 23.82 60.5381 23.6591 59.6964 23.3705C58.8547 23.0807 58.1096 22.6312 57.4622 22.0527C56.8149 21.4742 56.2963 20.7029 55.8754 19.7708C55.4546 18.8386 55.2603 17.7136 55.2603 16.4289V7.36633H58.2074V16.3639C58.2074 17.7456 58.596 18.8067 59.3733 19.5449C60.1506 20.2842 61.1223 20.6379 62.2882 20.6379C62.8068 20.6379 63.2921 20.574 63.7785 20.4131C64.2637 20.2523 64.6857 20.0275 65.0744 19.7708C65.463 19.5141 65.7873 19.1923 66.046 18.8386C66.3047 18.4849 66.499 18.0993 66.5968 17.6817V7.36633H69.5439V23.4024H66.6934V21.6351C66.1 22.4486 64.6788 23.82 62.2549 23.82Z" fill="#084242"/>
<path d="M25.7649 23.82C24.8393 23.82 24.0481 23.6591 23.2064 23.3705C22.3647 23.0807 21.6196 22.6312 20.9723 22.0527C20.3249 21.4742 19.8063 20.7029 19.3854 19.7708C18.9646 18.8386 18.7703 17.7136 18.7703 16.4289V7.36633H21.7174V16.3639C21.7174 17.7456 22.106 18.8067 22.8833 19.5449C23.6606 20.2842 24.6323 20.6379 25.7982 20.6379C26.3168 20.6379 26.8021 20.574 27.2885 20.4131C27.7737 20.2523 28.1957 20.0275 28.5844 19.7708C28.973 19.5141 29.2973 19.1923 29.556 18.8386C29.8147 18.4849 30.0091 18.0993 30.1068 17.6817V7.36633H33.0516V23.4024H30.2022V21.6351C29.61 22.4486 28.1877 23.82 25.7649 23.82Z" fill="#084242"/>
<path d="M78.2892 1.45584C76.3329 3.39697 76.3329 6.54416 78.2892 8.48528L81.8314 12L78.2892 15.5147C76.3329 17.4558 76.3329 20.603 78.2892 22.5442C80.2455 24.4853 83.4173 24.4853 85.3736 22.5442L96.0001 12L85.3736 1.45584C83.4173 -0.485281 80.2455 -0.485282 78.2892 1.45584Z" fill="#F26C55"/>
</svg>
